<svg width="20" height="20" viewBox="0 0 20 20" fill="none" xmlns="http://www.w3.org/2000/svg">
<path d="M17.3915 1.28691L10.0003 8.67816L2.60901 1.28691C2.43124 1.12423 2.19756 1.03642 1.95665 1.04176C1.71574 1.04709 1.48618 1.14517 1.31579 1.31557C1.1454 1.48596 1.04732 1.71552 1.04198 1.95643C1.03665 2.19734 1.12446 2.43102 1.28714 2.60879L8.67464 10L1.28526 17.3894C1.19499 17.4754 1.12282 17.5787 1.07301 17.693C1.02319 17.8073 0.996733 17.9304 0.995189 18.0551C0.993645 18.1798 1.01704 18.3036 1.06401 18.4191C1.11098 18.5346 1.18057 18.6396 1.26869 18.7278C1.35681 18.8161 1.46168 18.8858 1.57713 18.933C1.69259 18.9801 1.8163 19.0037 1.941 19.0023C2.0657 19.0009 2.18887 18.9746 2.30327 18.925C2.41766 18.8753 2.52098 18.8033 2.60714 18.7132L10.0003 11.3238L17.3915 18.715C17.5693 18.8777 17.803 18.9655 18.0439 18.9602C18.2848 18.9549 18.5143 18.8568 18.6847 18.6864C18.8551 18.516 18.9532 18.2864 18.9585 18.0455C18.9639 17.8046 18.8761 17.5709 18.7134 17.3932L11.3221 10.0019L18.7134 2.60879C18.8037 2.52275 18.8758 2.41954 18.9256 2.30521C18.9755 2.19089 19.0019 2.06776 19.0035 1.94306C19.005 1.81836 18.9816 1.69462 18.9346 1.57909C18.8877 1.46357 18.8181 1.3586 18.73 1.27036C18.6418 1.18211 18.537 1.11238 18.4215 1.06524C18.3061 1.01811 18.1823 0.994538 18.0576 0.995906C17.9329 0.997273 17.8098 1.02356 17.6954 1.07321C17.581 1.12286 17.4777 1.19488 17.3915 1.28504V1.28691Z" fill="white"/>
</svg>
