<svg width="24" height="24" viewBox="0 0 24 24" fill="none" xmlns="http://www.w3.org/2000/svg">
<path d="M10.0156 0C4.49271 0 0 4.49271 0 10.0156C0 15.5385 4.49271 20.0312 10.0156 20.0312C11.7612 20.0312 13.4209 19.5733 14.8517 18.7721C14.9276 18.9027 15.0137 19.0271 15.1092 19.1441L17.9708 22.0915C18.2351 22.3889 18.5573 22.629 18.9177 22.7973C19.2781 22.9656 19.6691 23.0585 20.0667 23.0702C20.4643 23.0819 20.8601 23.0122 21.2298 22.8654C21.5995 22.7186 21.9353 22.4978 22.2165 22.2165C22.4978 21.9353 22.7186 21.5995 22.8654 21.2298C23.0122 20.8601 23.0819 20.4643 23.0702 20.0667C23.0585 19.6691 22.9656 19.2781 22.7973 18.9177C22.629 18.5573 22.3889 18.2351 22.0915 17.9708L19.1441 15.1092C19.0271 15.0137 18.9027 14.9276 18.7721 14.8517C19.5447 13.4209 20.0312 11.7612 20.0312 10.0156C20.0312 4.49271 15.5385 0 10.0156 0ZM10.0156 2.8616C13.9932 2.8616 17.1696 6.03797 17.1696 10.0156C17.1696 11.7039 16.5973 13.2778 15.6529 14.4797L15.5671 14.5655C15.5089 14.5922 15.352 14.8212 15.2957 14.8517C15.0461 14.9872 14.9328 15.24 14.68 15.4526C13.4209 16.5114 11.7898 17.141 10.0156 17.141C6.03797 17.141 2.8616 13.9646 2.8616 9.98698C2.8616 6.00936 6.03797 2.83298 10.0156 2.83298V2.8616Z" fill="#FCFCFC"/>
</svg>
