<svg width="1440" height="563" viewBox="0 0 1440 563" fill="none" xmlns="http://www.w3.org/2000/svg">
<path fill-rule="evenodd" clip-rule="evenodd" d="M888.287 -222.386L292.948 731.357L242.938 701.844L292.948 731.357C258.55 786.461 171.177 756.937 179.342 692.965L292.556 -194.024L-209.23 693.087C-224.8 720.614 -260.372 730.655 -288.681 715.516C-316.991 700.377 -327.318 665.789 -311.748 638.263L232.763 -324.383C232.764 -324.383 232.764 -324.384 232.764 -324.384C243.574 -343.494 264.225 -355.365 286.652 -355.365H361.442C398.413 -355.365 427.027 -323.875 422.474 -288.202L327.362 456.966L873.671 -418.228C884.822 -436.092 904.754 -447 926.245 -447H1000.41C1042.03 -447 1071.63 -407.647 1059.02 -369.086L1059.02 -369.083L806.816 402.265L1196.4 -111.908C1207.99 -127.207 1226.37 -136.238 1245.91 -136.238H1336.87C1377.17 -136.238 1406.58 -99.1756 1396.36 -61.2715L1215.65 608.794H1218.9L1736.66 67.1792C1758.66 44.1694 1795.67 42.8546 1819.34 64.2425C1843 85.6304 1844.36 121.622 1822.36 144.632L1288.14 703.464C1276.5 715.646 1260.17 722.557 1243.09 722.557H1143.72C1103.42 722.557 1074.01 685.496 1084.23 647.59L1259.95 -3.99188L701.552 732.994L701.551 732.995C660.286 787.455 572.346 743.884 593.429 679.407L888.287 -222.386ZM335.282 -269.561C335.282 -269.561 335.282 -269.56 335.282 -269.56Z" stroke="#332381" stroke-width="2" stroke-linecap="round"/>
</svg>
