<svg width="602" height="786" viewBox="0 0 602 786" fill="none" xmlns="http://www.w3.org/2000/svg">
<path d="M450.184 481.113V685.523L470 822H-87L-58.0789 -14L224.706 4.36017C244.879 111.869 300.758 333.864 362.885 361.772C425.012 389.679 446.97 452.96 450.184 481.113Z" fill="#C1F8F2"/>
<rect width="153.042" height="444.143" rx="76.5211" transform="matrix(-1 0 0 1 158.12 261.135)" fill="#221857"/>
<rect width="153.042" height="444.143" rx="76.5211" transform="matrix(-1 0 0 1 602.256 496.685)" fill="#8E7EE4"/>
<rect width="153.042" height="444.143" rx="76.5211" transform="matrix(-1 0 0 1 314.163 551.166)" fill="#8E7EE4"/>
<path fill-rule="evenodd" clip-rule="evenodd" d="M303.417 -446.652C385.871 -446.652 452.713 -379.81 452.713 -297.356V269.864C452.713 352.318 385.871 419.16 303.417 419.16V-446.652Z" fill="#C1F8F2"/>
<path fill-rule="evenodd" clip-rule="evenodd" d="M-0.17915 -602.537C82.2749 -602.537 149.117 -535.694 149.117 -453.24V113.979C149.117 196.433 82.2749 263.275 -0.17915 263.275V-602.537Z" fill="#8E7EE4"/>
<path fill-rule="evenodd" clip-rule="evenodd" d="M303.414 421.16C220.959 421.16 154.117 354.318 154.117 271.864L154.117 -295.355C154.117 -377.809 220.96 -444.652 303.414 -444.652L303.414 421.16Z" fill="#221857"/>
</svg>
