<svg width="1569" height="1021" viewBox="0 0 1569 1021" fill="none" xmlns="http://www.w3.org/2000/svg">
<path d="M5 913.196V841.244C5 833.814 14.2466 830.398 19.0779 836.043L96.4477 926.442C101.279 932.087 110.526 928.67 110.526 921.24V839.976C110.526 832.704 119.443 829.204 124.39 834.535L216.549 933.85C220.491 938.098 227.501 936.876 229.773 931.545L239.014 909.86C242.428 901.848 254.374 904.288 254.374 912.996V1001.74C254.374 1008.86 262.976 1012.43 268.02 1007.41L375.6 900.229C381.712 894.14 391.563 897.949 396.161 905.248C397.732 907.742 399.695 910.39 402.109 913.196C420.463 934.529 458.404 856.816 480.298 802.721C482.935 796.204 492.136 795.836 495.194 802.165L547.971 911.418C551.669 919.073 563.175 916.44 563.175 907.939V812.009C563.175 804.076 573.478 800.98 577.85 807.6L643.489 906.98C645.803 910.482 650.43 911.601 654.088 909.542L758.415 850.834C763.748 847.833 770.338 851.686 770.338 857.806V895.696C770.338 902.548 778.39 906.23 783.572 901.746L915.25 787.824C917.04 786.275 919.424 785.599 921.761 785.977L1107.92 816.075C1115.3 817.268 1120.14 808.586 1115.24 802.937L1081.09 763.551C1075.48 757.084 1082.58 747.517 1090.39 751.004L1148.79 777.059C1155.44 780.024 1162.27 773.295 1159.41 766.604L1126.41 689.536C1122.89 681.31 1133.47 674.388 1139.6 680.91L1375.26 931.831C1381.58 938.557 1392.38 931.011 1388.24 922.764L1309.02 764.968C1305.28 757.522 1313.99 750.034 1320.79 754.85L1391.13 804.681C1398.88 810.166 1408.03 799.999 1401.77 792.872L1231.38 599.005C1225.84 592.708 1232.49 583.22 1240.3 586.273L1464.03 673.753C1472.49 677.06 1479.04 665.952 1472.05 660.149L1184.48 421.252C1178.72 416.467 1182.11 407.099 1189.6 407.099H1472.32C1481.92 407.099 1483.38 393.285 1473.99 391.276L1334.46 361.402C1325.88 359.565 1326.09 347.249 1334.73 345.704L1534.79 309.93C1543.15 308.435 1543.73 296.667 1535.56 294.357L1280.72 222.28C1273.2 220.152 1272.88 209.601 1280.27 207.028L1492.97 132.917C1499.54 130.627 1500.25 121.619 1494.13 118.319L1345.9 38.4794C1339.5 35.0311 1340.64 25.5214 1347.68 23.6931L1419.45 5.04746C1421.98 4.39099 1424.67 5.00895 1426.66 6.70296L1510.13 77.8769" stroke="#332381" stroke-width="9"/>
<path d="M1338.9 475.892L1183.49 610.425C1183.31 610.582 1183.06 610.622 1182.84 610.528L1171.57 605.763C1171.23 605.617 1171.09 605.204 1171.27 604.877L1264.76 438.038C1265.1 437.436 1264.36 436.809 1263.82 437.239L1078.49 585.091C1078.31 585.234 1078.06 585.268 1077.85 585.178L1066.69 580.456C1066.3 580.294 1066.18 579.809 1066.44 579.484L1201.17 411.928C1201.62 411.368 1200.93 410.613 1200.33 411.012L1052.61 509.512C1052.43 509.63 1052.21 509.651 1052.01 509.568L1038.27 503.752C1037.89 503.595 1037.77 503.13 1038 502.803L1123.55 385.613C1123.79 385.286 1123.66 384.821 1123.29 384.663L1108.24 378.298C1108.07 378.225 1107.88 378.233 1107.71 378.319L984.048 442.253" stroke="#5241AC" stroke-width="30" stroke-linecap="round"/>
<rect x="1300.75" y="732.62" width="99.8712" height="99.8712" rx="10" transform="rotate(-45 1300.75 732.62)" fill="#89E3DB"/>
</svg>
