<svg width="1554" height="1023" viewBox="0 0 1554 1023" fill="none" xmlns="http://www.w3.org/2000/svg">
<g opacity="0.2" filter="url(#filter0_d_41_2078)">
<path d="M9 913.196V841.244C9 833.814 18.2466 830.398 23.0779 836.043L100.448 926.442C105.279 932.087 114.526 928.67 114.526 921.24V839.976C114.526 832.704 123.443 829.204 128.39 834.535L220.549 933.85C224.491 938.098 231.501 936.876 233.773 931.545L243.014 909.86C246.428 901.848 258.374 904.288 258.374 912.996V1001.74C258.374 1008.86 266.976 1012.43 272.02 1007.41L379.6 900.229C385.712 894.14 395.563 897.949 400.161 905.248C401.732 907.742 403.695 910.39 406.109 913.196C424.463 934.529 462.404 856.816 484.298 802.721C486.935 796.204 496.136 795.836 499.194 802.165L551.971 911.418C555.669 919.073 567.175 916.44 567.175 907.939V812.009C567.175 804.076 577.478 800.98 581.85 807.6L647.489 906.98C649.803 910.482 654.43 911.601 658.088 909.542L762.415 850.834C767.748 847.833 774.338 851.686 774.338 857.806V895.696C774.338 902.548 782.39 906.23 787.572 901.746L919.25 787.824C921.04 786.275 923.424 785.599 925.761 785.977L1111.92 816.075C1119.3 817.268 1124.14 808.586 1119.24 802.937L1085.09 763.551C1079.48 757.084 1086.58 747.517 1094.39 751.004L1152.79 777.059C1159.44 780.024 1166.27 773.295 1163.41 766.604L1130.41 689.536C1126.89 681.31 1137.47 674.388 1143.6 680.91L1379.26 931.831C1385.58 938.557 1396.38 931.011 1392.24 922.764L1313.02 764.968C1309.28 757.522 1317.99 750.034 1324.79 754.85L1395.13 804.681C1402.88 810.166 1412.03 799.999 1405.77 792.872L1235.38 599.005C1229.84 592.708 1236.49 583.22 1244.3 586.273L1468.03 673.753C1476.49 677.06 1483.04 665.952 1476.05 660.149L1188.48 421.252C1182.72 416.467 1186.11 407.099 1193.6 407.099H1476.32C1485.92 407.099 1487.38 393.285 1477.99 391.276L1338.46 361.402C1329.88 359.565 1330.09 347.249 1338.73 345.704L1538.79 309.93C1547.15 308.435 1547.73 296.667 1539.56 294.357L1284.72 222.28C1277.2 220.152 1276.88 209.601 1284.27 207.028L1496.97 132.917C1503.54 130.627 1504.25 121.619 1498.13 118.319L1349.9 38.4794C1343.5 35.0311 1344.64 25.5214 1351.68 23.6931L1423.45 5.04746C1425.98 4.39099 1428.67 5.00895 1430.66 6.70296L1514.13 77.8769" stroke="#8E7EE4" stroke-width="9"/>
</g>
<defs>
<filter id="filter0_d_41_2078" x="0.5" y="0.290527" width="1553.39" height="1021.97" filterUnits="userSpaceOnUse" color-interpolation-filters="sRGB">
<feFlood flood-opacity="0" result="BackgroundImageFix"/>
<feColorMatrix in="SourceAlpha" type="matrix" values="0 0 0 0 0 0 0 0 0 0 0 0 0 0 0 0 0 0 127 0" result="hardAlpha"/>
<feOffset dy="4"/>
<feGaussianBlur stdDeviation="2"/>
<feComposite in2="hardAlpha" operator="out"/>
<feColorMatrix type="matrix" values="0 0 0 0 0 0 0 0 0 0 0 0 0 0 0 0 0 0 0.25 0"/>
<feBlend mode="normal" in2="BackgroundImageFix" result="effect1_dropShadow_41_2078"/>
<feBlend mode="normal" in="SourceGraphic" in2="effect1_dropShadow_41_2078" result="shape"/>
</filter>
</defs>
</svg>
