<svg width="154" height="147" viewBox="0 0 154 147" fill="none" xmlns="http://www.w3.org/2000/svg">
<path d="M131.224 2.76712C132.242 0.285041 135.758 0.285042 136.776 2.76712L153.207 42.8275C153.994 44.7475 156.447 45.3072 157.989 43.919L190.175 14.9551C192.169 13.1605 195.336 14.6857 195.176 17.3637L192.598 60.586C192.475 62.6576 194.442 64.2259 196.434 63.6445L237.999 51.5136C240.574 50.762 242.766 53.5102 241.46 55.8537L220.384 93.6773C219.374 95.4902 220.465 97.7564 222.512 98.0969L265.225 105.202C267.871 105.642 268.653 109.069 266.46 110.614L231.06 135.547C229.364 136.742 229.364 139.258 231.06 140.453L266.46 165.386C268.653 166.931 267.871 170.358 265.225 170.798L222.512 177.903C220.465 178.244 219.374 180.51 220.384 182.323L241.46 220.146C242.766 222.49 240.574 225.238 237.999 224.486L196.434 212.356C194.442 211.774 192.475 213.342 192.598 215.414L195.176 258.636C195.336 261.314 192.169 262.839 190.175 261.045L157.989 232.081C156.447 230.693 153.994 231.253 153.207 233.173L136.776 273.233C135.758 275.715 132.242 275.715 131.224 273.233L114.793 233.173C114.006 231.253 111.553 230.693 110.011 232.081L77.8254 261.045C75.8312 262.839 72.6642 261.314 72.8239 258.636L75.4015 215.414C75.5251 213.342 73.5585 211.774 71.5663 212.356L30.0012 224.486C27.4259 225.238 25.2343 222.49 26.5401 220.146L47.6159 182.323C48.626 180.51 47.5347 178.244 45.4876 177.903L2.77532 170.798C0.128937 170.358 -0.653244 166.931 1.54007 165.386L36.9398 140.453C38.6364 139.258 38.6364 136.742 36.9398 135.547L1.54007 110.614C-0.653246 109.069 0.128939 105.642 2.77533 105.202L45.4876 98.0969C47.5347 97.7564 48.626 95.4902 47.6159 93.6773L26.5401 55.8537C25.2343 53.5102 27.4259 50.762 30.0012 51.5136L71.5663 63.6445C73.5585 64.2259 75.5251 62.6576 75.4015 60.586L72.8239 17.3637C72.6642 14.6857 75.8312 13.1605 77.8254 14.9551L110.011 43.919C111.553 45.3072 114.006 44.7475 114.793 42.8275L131.224 2.76712Z" fill="#C1F8F2"/>
</svg>
