<svg width="149" height="134" viewBox="0 0 149 134" fill="none" xmlns="http://www.w3.org/2000/svg">
<path d="M277.464 86.6157L160.715 192.062C160.527 192.231 160.258 192.277 160.025 192.178L152.079 188.816C151.723 188.666 151.576 188.24 151.763 187.902L222.737 59.5164C223.086 58.8859 222.304 58.24 221.751 58.7018L83.4669 174.157C83.2797 174.313 83.0207 174.352 82.7961 174.257L74.9506 170.937C74.5561 170.77 74.4276 170.275 74.6913 169.937L175.83 40.51C176.291 39.9202 175.555 39.1462 174.943 39.5766L65.4406 116.541C65.2568 116.67 65.0195 116.695 64.8126 116.607L55.0539 112.478C54.6704 112.316 54.5357 111.84 54.7773 111.501L119.488 20.6335C119.73 20.2943 119.595 19.8186 119.212 19.6564L108.489 15.1194C108.305 15.0416 108.096 15.0525 107.921 15.1487L15.6623 65.9794" stroke="#8E7EE4" stroke-width="29.9441" stroke-linecap="round"/>
</svg>
