<svg width="1440" height="624" viewBox="0 0 1440 624" fill="none" xmlns="http://www.w3.org/2000/svg">
<path opacity="0.2" d="M-43 608.04V541.711C-43 534.428 -34.0609 530.933 -29.1214 536.285L48.647 620.538C53.5865 625.89 62.5256 622.395 62.5256 615.112V540.552C62.5256 533.426 71.1397 529.856 76.1803 534.893L168.811 627.454C172.751 631.391 179.409 630.197 181.735 625.136L191.105 604.75C194.69 596.949 206.374 599.506 206.374 608.091V689.719C206.374 696.694 214.678 700.329 219.802 695.595L325.693 597.778C332.073 591.884 344.759 596.427 350.072 603.3C351.248 604.822 352.589 606.402 354.109 608.04C372.483 627.842 410.487 555.605 432.37 505.439C435.096 499.19 443.924 498.812 447.074 504.859L500.08 606.6C503.947 614.023 515.175 611.274 515.175 602.904V514.545C515.175 506.757 525.172 503.56 529.691 509.903L595.554 602.367C597.871 605.619 602.231 606.665 605.771 604.818L710.637 550.1C715.963 547.32 722.338 551.184 722.338 557.192V591.367C722.338 598.08 730.108 601.807 735.344 597.607L867.344 491.715C869.084 490.319 871.329 489.713 873.536 490.044L1058.96 517.842C1066.46 518.966 1071.17 510.004 1065.99 504.467L1034.7 471.006C1028.82 464.722 1035.65 454.861 1043.6 458.15L1100.56 481.71C1107.28 484.493 1113.93 477.573 1110.88 470.964L1079.05 402.034C1075.31 393.95 1085.59 386.731 1091.93 392.987L1326.69 624.751C1333.23 631.212 1343.72 623.336 1339.34 615.249L1261.76 471.973C1257.8 464.662 1266.24 456.913 1273.19 461.477L1341.17 506.133C1349.11 511.349 1357.91 500.838 1351.37 493.943L1184.93 318.353C1179.13 312.228 1185.53 302.452 1193.47 305.328L1413.76 385.199C1422.35 388.313 1428.61 376.916 1421.37 371.34L1138.06 153.106C1132.01 148.446 1135.31 138.768 1142.94 138.768H1418.51C1428.18 138.768 1429.56 124.804 1420.07 122.921L1289.72 97.0426C1280.99 95.3096 1281.19 82.7592 1289.97 81.3035L1484.04 49.1256C1492.56 47.7141 1493.11 35.6841 1484.76 33.4951L1234.77 -32.0648C1227.04 -34.0928 1226.74 -44.958 1234.34 -47.4157L1443.49 -114.988C1450.31 -117.19 1451.02 -126.556 1444.61 -129.757L1299.58 -202.19C1292.9 -205.525 1294.02 -215.377 1301.28 -217.125L1371.7 -234.089C1374.09 -234.664 1376.61 -234.11 1378.54 -232.587L1462.13 -166.499" stroke="#8E7EE4" stroke-width="9"/>
</svg>
