<svg width="497" height="211" viewBox="0 0 497 211" fill="none" xmlns="http://www.w3.org/2000/svg">
<path fill-rule="evenodd" clip-rule="evenodd" d="M278.344 192.697L400.789 90.4653C425.833 69.556 461.257 98.7986 445.473 127.35L367.832 267.794L505.066 143.846C516.642 133.391 534.503 134.299 544.959 145.876C555.415 157.453 554.507 175.313 542.93 185.769L322.677 384.699C314.173 392.379 301.989 394.434 291.436 389.969L276.446 383.627C260.333 376.809 253.672 357.536 262.137 342.223L326.208 226.326L176.116 351.641C167.637 358.719 155.913 360.464 145.741 356.16L130.94 349.898C113.078 342.34 107.259 319.888 119.201 304.606L197.978 203.795L140.247 244.371C131.927 250.219 121.18 251.365 111.814 247.402L93.4039 239.612C76.04 232.265 69.944 210.729 80.8811 195.371L157.325 88.028L43.7264 150.616C30.0634 158.144 12.8849 153.17 5.35719 139.507C-2.17053 125.844 2.80312 108.665 16.4662 101.138L190.517 5.2431C198.43 0.883535 207.905 0.393746 216.225 3.9141L236.454 12.4733C253.818 19.8202 259.914 41.3562 248.977 56.7141L188.825 141.18L314.344 52.9581C342.073 33.4685 375.385 68.5128 354.516 95.2192L278.344 192.697Z" stroke="#332381" stroke-width="2" stroke-linecap="round"/>
</svg>
